<svg xmlns="http://www.w3.org/2000/svg" viewBox="0 0 200 200" fill="none">
  <!-- Compact logo for header -->
  <!-- Buildings -->
  <g id="buildings">
    <!-- Left building -->
    <rect x="40" y="80" width="30" height="80" fill="#2C3E50" rx="2"/>
    <rect x="45" y="88" width="6" height="8" fill="#34495E"/>
    <rect x="54" y="88" width="6" height="8" fill="#34495E"/>
    <rect x="45" y="100" width="6" height="8" fill="#34495E"/>
    <rect x="54" y="100" width="6" height="8" fill="#34495E"/>
    
    <!-- Middle building -->
    <rect x="75" y="70" width="28" height="90" fill="#34495E" rx="2"/>
    <rect x="80" y="78" width="5" height="7" fill="#4A5F7F"/>
    <rect x="90" y="78" width="5" height="7" fill="#4A5F7F"/>
    <rect x="80" y="90" width="5" height="7" fill="#4A5F7F"/>
    <rect x="90" y="90" width="5" height="7" fill="#4A5F7F"/>
    
    <!-- Right building -->
    <rect x="108" y="85" width="25" height="75" fill="#7F8C8D" rx="2"/>
    <line x1="115" y1="90" x2="115" y2="155" stroke="#95A5A6" stroke-width="1.5"/>
    <line x1="125" y1="90" x2="125" y2="155" stroke="#95A5A6" stroke-width="1.5"/>
  </g>
  
  <!-- Orange roof house -->
  <g id="roof">
    <rect x="138" y="110" width="35" height="50" fill="#E8E8E8" rx="1.5"/>
    <path d="M 135 110 L 155.5 90 L 176 110 Z" fill="#E67E22"/>
    <path d="M 155.5 90 L 176 110 L 176 112 L 155.5 92 Z" fill="#D35400" opacity="0.7"/>
    <rect x="148" y="140" width="8" height="20" fill="#34495E" rx="1"/>
    <rect x="142" y="118" width="7" height="7" fill="#525252" rx="0.5"/>
    <rect x="160" y="118" width="7" height="7" fill="#525252" rx="0.5"/>
  </g>
  
  <!-- Curved base -->
  <path d="M 30 160 Q 100 152 170 160" stroke="#34495E" stroke-width="2" fill="none"/>
</svg>
