<svg xmlns="http://www.w3.org/2000/svg" viewBox="0 0 600 400" fill="none">
  <!-- Quote and planning -->
  <rect width="600" height="400" fill="#F8FAFC"/>
  
  <!-- Document/quote -->
  <rect x="150" y="80" width="300" height="240" fill="#FFF" rx="4" stroke="#E2E8F0" stroke-width="2"/>
  
  <!-- Header -->
  <rect x="170" y="100" width="260" height="40" fill="#2563EB" opacity="0.1" rx="2"/>
  <rect x="180" y="110" width="100" height="20" fill="#2563EB" rx="2"/>
  
  <!-- Content lines -->
  <line x1="180" y1="170" x2="380" y2="170" stroke="#CBD5E1" stroke-width="3"/>
  <line x1="180" y1="195" x2="350" y2="195" stroke="#CBD5E1" stroke-width="3"/>
  <line x1="180" y1="220" x2="380" y2="220" stroke="#CBD5E1" stroke-width="3"/>
  <line x1="180" y1="245" x2="330" y2="245" stroke="#CBD5E1" stroke-width="3"/>
  
  <!-- Price section -->
  <rect x="170" y="270" width="260" height="35" fill="#F59E0B" opacity="0.2" rx="2"/>
  <rect x="320" y="278" width="80" height="20" fill="#F59E0B" rx="2"/>
  
  <!-- Calculator/tools -->
  <rect x="470" y="180" width="80" height="100" fill="#E2E8F0" rx="3"/>
  <rect x="480" y="190" width="60" height="20" fill="#64748B" opacity="0.3" rx="2"/>
  <circle cx="495" cy="230" r="8" fill="#2563EB"/>
  <circle cx="520" cy="230" r="8" fill="#2563EB"/>
  <circle cx="535" cy="230" r="8" fill="#2563EB"/>
  <circle cx="495" cy="255" r="8" fill="#64748B"/>
  <circle cx="520" cy="255" r="8" fill="#64748B"/>
  <circle cx="535" cy="255" r="8" fill="#64748B"/>
  
  <!-- Ground -->
  <rect x="0" y="360" width="600" height="40" fill="#CBD5E1"/>
</svg>
