<svg xmlns="http://www.w3.org/2000/svg" viewBox="0 0 600 400" fill="none">
  <!-- Planning and needs assessment -->
  <rect width="600" height="400" fill="#F8FAFC"/>
  
  <!-- People discussing -->
  <circle cx="200" cy="180" r="35" fill="#2563EB" opacity="0.8"/>
  <rect x="190" y="215" width="20" height="60" fill="#2563EB" opacity="0.8"/>
  <line x1="190" y1="240" x2="170" y2="270" stroke="#2563EB" stroke-width="4" opacity="0.8"/>
  <line x1="210" y1="240" x2="230" y2="270" stroke="#2563EB" stroke-width="4" opacity="0.8"/>
  
  <circle cx="350" cy="190" r="32" fill="#64748B" opacity="0.8"/>
  <rect x="342" y="222" width="16" height="50" fill="#64748B" opacity="0.8"/>
  <line x1="342" y1="245" x2="325" y2="270" stroke="#64748B" stroke-width="4" opacity="0.8"/>
  <line x1="358" y1="245" x2="375" y2="270" stroke="#64748B" stroke-width="4" opacity="0.8"/>
  
  <!-- Checklist/clipboard -->
  <rect x="240" y="120" width="120" height="160" fill="#E2E8F0" rx="4"/>
  <rect x="255" y="110" width="90" height="20" fill="#94A3B8" rx="3"/>
  
  <!-- Checkmarks -->
  <circle cx="275" cy="150" r="8" fill="#10B981"/>
  <path d="M 272 150 L 275 153 L 280 146" stroke="#FFF" stroke-width="2" fill="none"/>
  
  <circle cx="275" cy="180" r="8" fill="#10B981"/>
  <path d="M 272 180 L 275 183 L 280 176" stroke="#FFF" stroke-width="2" fill="none"/>
  
  <circle cx="275" cy="210" r="8" fill="#CBD5E1"/>
  <circle cx="275" cy="240" r="8" fill="#CBD5E1"/>
  
  <!-- Text lines -->
  <line x1="295" y1="150" x2="340" y2="150" stroke="#64748B" stroke-width="2"/>
  <line x1="295" y1="180" x2="340" y2="180" stroke="#64748B" stroke-width="2"/>
  <line x1="295" y1="210" x2="340" y2="210" stroke="#64748B" stroke-width="2"/>
  <line x1="295" y1="240" x2="340" y2="240" stroke="#64748B" stroke-width="2"/>
  
  <!-- Ground -->
  <rect x="0" y="350" width="600" height="50" fill="#CBD5E1"/>
</svg>
