<svg xmlns="http://www.w3.org/2000/svg" viewBox="0 0 600 400" fill="none">
  <!-- New building construction -->
  <rect width="600" height="400" fill="#F8FAFC"/>
  
  <!-- Main building structure -->
  <rect x="150" y="120" width="300" height="230" fill="#E2E8F0" rx="4"/>
  
  <!-- Roof -->
  <path d="M 140 120 L 300 40 L 460 120 Z" fill="#2563EB"/>
  
  <!-- Windows grid -->
  <rect x="180" y="150" width="50" height="60" fill="#94A3B8" rx="2"/>
  <rect x="250" y="150" width="50" height="60" fill="#94A3B8" rx="2"/>
  <rect x="320" y="150" width="50" height="60" fill="#94A3B8" rx="2"/>
  <rect x="390" y="150" width="50" height="60" fill="#94A3B8" rx="2"/>
  
  <rect x="180" y="230" width="50" height="60" fill="#94A3B8" rx="2"/>
  <rect x="250" y="230" width="50" height="60" fill="#94A3B8" rx="2"/>
  <rect x="320" y="230" width="50" height="60" fill="#94A3B8" rx="2"/>
  <rect x="390" y="230" width="50" height="60" fill="#94A3B8" rx="2"/>
  
  <!-- Door -->
  <rect x="270" y="290" width="60" height="60" fill="#64748B" rx="3"/>
  
  <!-- Ground -->
  <rect x="0" y="350" width="600" height="50" fill="#CBD5E1"/>
  
  <!-- Decorative elements -->
  <circle cx="500" cy="80" r="30" fill="#F59E0B" opacity="0.2"/>
</svg>
