<svg xmlns="http://www.w3.org/2000/svg" viewBox="0 0 600 400" fill="none">
  <!-- Project planning and management -->
  <rect width="600" height="400" fill="#F8FAFC"/>
  
  <!-- Blueprint/plans -->
  <rect x="100" y="100" width="400" height="250" fill="#E2E8F0" rx="4"/>
  <rect x="120" y="120" width="360" height="210" fill="#FFF" rx="2"/>
  
  <!-- Grid lines (blueprint style) -->
  <line x1="120" y1="170" x2="480" y2="170" stroke="#CBD5E1" stroke-width="1" stroke-dasharray="4"/>
  <line x1="120" y1="220" x2="480" y2="220" stroke="#CBD5E1" stroke-width="1" stroke-dasharray="4"/>
  <line x1="120" y1="270" x2="480" y2="270" stroke="#CBD5E1" stroke-width="1" stroke-dasharray="4"/>
  
  <line x1="200" y1="120" x2="200" y2="330" stroke="#CBD5E1" stroke-width="1" stroke-dasharray="4"/>
  <line x1="300" y1="120" x2="300" y2="330" stroke="#CBD5E1" stroke-width="1" stroke-dasharray="4"/>
  <line x1="400" y1="120" x2="400" y2="330" stroke="#CBD5E1" stroke-width="1" stroke-dasharray="4"/>
  
  <!-- Building outline on blueprint -->
  <rect x="220" y="160" width="160" height="130" fill="none" stroke="#2563EB" stroke-width="3" rx="2"/>
  <rect x="240" y="180" width="40" height="50" fill="none" stroke="#2563EB" stroke-width="2"/>
  <rect x="300" y="180" width="40" height="50" fill="none" stroke="#2563EB" stroke-width="2"/>
  
  <!-- Ruler/measuring tools -->
  <rect x="150" y="80" width="300" height="15" fill="#F59E0B" rx="2"/>
  <line x1="150" y1="80" x2="150" y2="95" stroke="#94A3B8" stroke-width="1"/>
  <line x1="200" y1="80" x2="200" y2="95" stroke="#94A3B8" stroke-width="1"/>
  <line x1="250" y1="80" x2="250" y2="95" stroke="#94A3B8" stroke-width="1"/>
  <line x1="300" y1="80" x2="300" y2="95" stroke="#94A3B8" stroke-width="1"/>
  <line x1="350" y1="80" x2="350" y2="95" stroke="#94A3B8" stroke-width="1"/>
  <line x1="400" y1="80" x2="400" y2="95" stroke="#94A3B8" stroke-width="1"/>
  <line x1="450" y1="80" x2="450" y2="95" stroke="#94A3B8" stroke-width="1"/>
  
  <!-- Pencil -->
  <rect x="520" y="200" width="15" height="120" fill="#FCD34D" rx="2"/>
  <path d="M 520 320 L 527.5 335 L 535 320 Z" fill="#64748B"/>
</svg>
